# xmcd
#
# Track frame offsets:
#	219
#	1605
#	16774
#	37098
#	70309
#	86179
#	111819
#	130322
#	149491
#	167600
#
# Disc length: 2849 seconds
#
# Revision: 1
# Processed by: cddbd v1.5.2PL0 Copyright (c) Steve Scherf et al.
# Submitted via: audiograbber 1.83.01
#
DISCID=800b1f0a
DTITLE=King Mo - King of the town
DYEAR=2011
DGENRE=Blues
TTITLE0=Japanese analog
TTITLE1=Every day you're running
TTITLE2=I was wrong
TTITLE3=200 Miles
TTITLE4=I'm a ram
TTITLE5=King of the town
TTITLE6=Coming home
TTITLE7=The shape you're in
TTITLE8=200 Miles - Slight return
TTITLE9=Take me as I am 
EXTD=
EXTT0=
EXTT1=
EXTT2=
EXTT3=
EXTT4=
EXTT5=
EXTT6=
EXTT7=
EXTT8=
EXTT9=
PLAYORDER=
